<svg width="100" height="100" viewBox="0 0 100 100" fill="none" xmlns="http://www.w3.org/2000/svg">
<g clip-path="url(#clip0)">
<rect y="12" width="100" height="88" rx="10" fill="#0C1E3E"/>
<path d="M78.625 12.4999H63C66.3152 12.4999 69.4946 13.8168 71.8388 16.161C74.183 18.5052 75.5 21.6847 75.5 24.9999H25.5C25.5 21.6847 26.817 18.5052 29.1612 16.161C31.5054 13.8168 34.6848 12.4999 38 12.4999H22.375C19.8886 12.4999 17.504 13.4876 15.7459 15.2458C13.9877 17.0039 13 19.3885 13 21.8749L13 90.6249C13 93.1113 13.9877 95.4959 15.7459 97.254C17.504 99.0122 19.8886 99.9999 22.375 99.9999H78.625C81.1114 99.9999 83.496 99.0122 85.2541 97.254C87.0123 95.4959 88 93.1113 88 90.6249V21.8749C88 19.3885 87.0123 17.0039 85.2541 15.2458C83.496 13.4876 81.1114 12.4999 78.625 12.4999V12.4999ZM74.1719 53.0858L46.2422 80.7811C46.0232 80.9984 45.7634 81.1702 45.4778 81.2868C45.1922 81.4034 44.8864 81.4625 44.578 81.4607C44.2695 81.4589 43.9644 81.3962 43.6802 81.2762C43.396 81.1563 43.1383 80.9814 42.9219 80.7616L26.7891 64.4921C26.5718 64.273 26.4 64.0133 26.2834 63.7277C26.1667 63.4421 26.1076 63.1363 26.1095 62.8279C26.1113 62.5194 26.174 62.2143 26.2939 61.9301C26.4139 61.6459 26.5888 61.3882 26.8086 61.1718L32.3555 55.6639C32.5745 55.4467 32.8342 55.2749 33.1198 55.1582C33.4054 55.0416 33.7112 54.9825 34.0197 54.9843C34.3282 54.9862 34.6332 55.0488 34.9174 55.1688C35.2016 55.2888 35.4593 55.4637 35.6758 55.6835L44.6602 64.746L65.3633 44.1991C65.5823 43.9819 65.8421 43.81 66.1276 43.6934C66.4132 43.5768 66.719 43.5177 67.0275 43.5195C67.336 43.5213 67.641 43.584 67.9252 43.704C68.2094 43.8239 68.4671 43.9988 68.6836 44.2186L74.1914 49.7655C74.4086 49.9845 74.5805 50.2443 74.6971 50.5299C74.8137 50.8154 74.8728 51.1212 74.871 51.4297C74.8692 51.7382 74.8065 52.0433 74.6865 52.3275C74.5666 52.6116 74.3917 52.8694 74.1719 53.0858V53.0858Z" fill="#0C1E3E"/>
<path d="M68.6835 44.2187C68.467 43.999 68.2093 43.8241 67.9251 43.7041C67.6409 43.5841 67.3358 43.5214 67.0274 43.5196C66.7189 43.5178 66.4131 43.5769 66.1275 43.6935C65.8419 43.8101 65.5822 43.982 65.3632 44.1992L44.66 64.7461L35.6757 55.6836C35.4592 55.4638 35.2015 55.2889 34.9173 55.1689C34.6331 55.049 34.328 54.9863 34.0196 54.9845C33.7111 54.9826 33.4053 55.0417 33.1197 55.1584C32.8341 55.275 32.5744 55.4468 32.3553 55.6641L26.8085 61.1719C26.5887 61.3883 26.4138 61.646 26.2938 61.9302C26.1738 62.2144 26.1112 62.5195 26.1093 62.828C26.1075 63.1364 26.1666 63.4422 26.2832 63.7278C26.3999 64.0134 26.5717 64.2732 26.7889 64.4922L42.9218 80.7617C43.1382 80.9815 43.3959 81.1564 43.6801 81.2764C43.9643 81.3963 44.2694 81.459 44.5779 81.4609C44.8863 81.4627 45.1921 81.4036 45.4777 81.2869C45.7633 81.1703 46.023 80.9985 46.2421 80.7813L74.1718 53.0859C74.3915 52.8695 74.5664 52.6118 74.6864 52.3276C74.8064 52.0434 74.8691 51.7383 74.8709 51.4298C74.8727 51.1214 74.8136 50.8156 74.697 50.53C74.5804 50.2444 74.4085 49.9847 74.1913 49.7656L68.6835 44.2187ZM62.9999 12.5C62.9999 9.18479 61.6829 6.00537 59.3387 3.66117C56.9945 1.31696 53.8151 0 50.4999 0C47.1847 0 44.0052 1.31696 41.661 3.66117C39.3168 6.00537 37.9999 9.18479 37.9999 12.5C34.6847 12.5 31.5052 13.817 29.161 16.1612C26.8168 18.5054 25.4999 21.6848 25.4999 25H75.4999C75.4999 21.6848 74.1829 18.5054 71.8387 16.1612C69.4945 13.817 66.3151 12.5 62.9999 12.5ZM50.4999 17.1875C49.5728 17.1875 48.6665 16.9126 47.8956 16.3975C47.1248 15.8824 46.524 15.1504 46.1692 14.2938C45.8144 13.4373 45.7216 12.4948 45.9024 11.5855C46.0833 10.6762 46.5298 9.841 47.1853 9.18544C47.8409 8.52988 48.6761 8.08344 49.5854 7.90257C50.4947 7.7217 51.4372 7.81453 52.2937 8.16932C53.1502 8.5241 53.8823 9.12491 54.3974 9.89576C54.9125 10.6666 55.1874 11.5729 55.1874 12.5C55.1889 13.116 55.0687 13.7262 54.8337 14.2957C54.5987 14.8651 54.2535 15.3824 53.8179 15.818C53.3823 16.2536 52.8649 16.5988 52.2955 16.8338C51.7261 17.0689 51.1159 17.189 50.4999 17.1875Z" fill="#2971FF"/>
<path d="M67.9016 43.7391C68.1858 43.8591 68.4435 44.034 68.66 44.2537L74.1678 49.8006C74.385 50.0196 74.5569 50.2794 74.6735 50.565C74.7901 50.8506 74.8492 51.1564 74.8474 51.4648C74.8456 51.7733 74.7829 52.0784 74.6629 52.3626C74.5429 52.6468 74.3681 52.9045 74.1483 53.1209L46.2186 80.8162C45.9996 81.0335 45.7398 81.2053 45.4542 81.3219C45.1686 81.4386 44.8628 81.4977 44.5544 81.4958C44.2459 81.494 43.9408 81.4313 43.6566 81.3114C43.3724 81.1914 43.1147 81.0165 42.8983 80.7967L26.7655 64.5272C26.5482 64.3082 26.3764 64.0484 26.2598 63.7628C26.1431 63.4772 26.084 63.1714 26.0859 62.863C26.0877 62.5545 26.1504 62.2494 26.2703 61.9652C26.3903 61.681 26.5652 61.4233 26.785 61.2069L32.3319 55.699C32.5509 55.4818 32.8106 55.31 33.0962 55.1934C33.3818 55.0767 33.6876 55.0176 33.9961 55.0194C34.3045 55.0213 34.6096 55.084 34.8938 55.2039C35.178 55.3239 35.4357 55.4988 35.6522 55.7186L44.6365 64.7811L65.3397 44.2342C65.5587 44.017 65.8185 43.8451 66.104 43.7285C66.3896 43.6119 66.6954 43.5528 67.0039 43.5546C67.3124 43.5564 67.6174 43.6191 67.9016 43.7391Z" fill="white"/>
</g>
<defs>
<clipPath id="clip0">
<rect width="100" height="100" fill="white"/>
</clipPath>
</defs>
</svg>
